<svg width="36" height="34" viewBox="0 0 36 34" fill="none" xmlns="http://www.w3.org/2000/svg">
<path d="M30.6426 34.48H4.39258C3.1849 34.48 2.15381 34.0591 1.29932 33.2173C0.444824 32.3755 0.0175781 31.3597 0.0175781 30.17V4.31C0.0175781 3.12026 0.444824 2.10449 1.29932 1.2627C2.15381 0.420898 3.1849 0 4.39258 0H30.6426C31.8503 0 32.8813 0.420898 33.7358 1.2627C34.5903 2.10449 35.0176 3.12026 35.0176 4.31V30.17C35.0176 31.3597 34.5903 32.3755 33.7358 33.2173C32.8813 34.0591 31.8503 34.48 30.6426 34.48ZM8.76758 2.155H4.39258V10.775H8.76758V2.155ZM17.5176 12.93C15.6947 12.93 14.1452 13.5585 12.8691 14.8156C11.5931 16.0727 10.9551 17.5992 10.9551 19.395C10.9551 21.1908 11.5931 22.7173 12.8691 23.9744C14.1452 25.2315 15.6947 25.86 17.5176 25.86C19.3405 25.86 20.89 25.2315 22.166 23.9744C23.4421 22.7173 24.0801 21.1908 24.0801 19.395C24.0801 17.5992 23.4421 16.0727 22.166 14.8156C20.89 13.5585 19.3405 12.93 17.5176 12.93ZM30.6426 5.3875C30.6426 5.09568 30.5343 4.84314 30.3179 4.62988C30.1014 4.41663 29.8451 4.31 29.5488 4.31H27.3613C27.0651 4.31 26.8088 4.41663 26.5923 4.62988C26.3758 4.84314 26.2676 5.09568 26.2676 5.3875V7.5425C26.2676 7.83432 26.3758 8.08686 26.5923 8.30012C26.8088 8.51337 27.0651 8.62 27.3613 8.62H29.5488C29.8451 8.62 30.1014 8.51337 30.3179 8.30012C30.5343 8.08686 30.6426 7.83432 30.6426 7.5425V5.3875ZM32.8301 12.93H26.2676C27.7259 14.8605 28.4551 17.0155 28.4551 19.395C28.4551 21.348 27.9652 23.1494 26.9854 24.7993C26.0055 26.4493 24.6782 27.7568 23.0034 28.7221C21.3286 29.6874 19.5 30.17 17.5176 30.17C15.5352 30.17 13.7065 29.6874 12.0317 28.7221C10.3569 27.7568 9.02962 26.4493 8.0498 24.7993C7.06999 23.1494 6.58008 21.348 6.58008 19.395C6.58008 17.0155 7.30924 14.8605 8.76758 12.93H2.20508V30.17C2.20508 30.7761 2.41585 31.2868 2.8374 31.7021C3.25895 32.1174 3.77734 32.325 4.39258 32.325H30.6426C31.235 32.325 31.7477 32.1174 32.1807 31.7021C32.6136 31.2868 32.8301 30.7761 32.8301 30.17V12.93Z" fill="white"/>
</svg>
